<svg width="20" height="20" viewBox="0 0 20 20" fill="none" xmlns="http://www.w3.org/2000/svg">
<path d="M15.8333 8.95829H14.1667C12.15 8.95829 11.0417 7.84996 11.0417 5.83329V4.16663C11.0417 2.14996 12.15 1.04163 14.1667 1.04163H15.8333C17.85 1.04163 18.9583 2.14996 18.9583 4.16663V5.83329C18.9583 7.84996 17.85 8.95829 15.8333 8.95829ZM14.1667 2.29163C12.85 2.29163 12.2917 2.84996 12.2917 4.16663V5.83329C12.2917 7.14996 12.85 7.70829 14.1667 7.70829H15.8333C17.15 7.70829 17.7083 7.14996 17.7083 5.83329V4.16663C17.7083 2.84996 17.15 2.29163 15.8333 2.29163H14.1667Z" fill="#5879FD"/>
<path d="M5.83334 18.9583H4.16667C2.15 18.9583 1.04167 17.85 1.04167 15.8333V14.1666C1.04167 12.15 2.15 11.0416 4.16667 11.0416H5.83334C7.85001 11.0416 8.95834 12.15 8.95834 14.1666V15.8333C8.95834 17.85 7.85001 18.9583 5.83334 18.9583ZM4.16667 12.2916C2.85001 12.2916 2.29167 12.85 2.29167 14.1666V15.8333C2.29167 17.15 2.85001 17.7083 4.16667 17.7083H5.83334C7.15 17.7083 7.70834 17.15 7.70834 15.8333V14.1666C7.70834 12.85 7.15 12.2916 5.83334 12.2916H4.16667Z" fill="#5879FD"/>
<path d="M5.00001 8.95829C2.81667 8.95829 1.04167 7.18329 1.04167 4.99996C1.04167 2.81663 2.81667 1.04163 5.00001 1.04163C7.18334 1.04163 8.95834 2.81663 8.95834 4.99996C8.95834 7.18329 7.18334 8.95829 5.00001 8.95829ZM5.00001 2.29163C3.50834 2.29163 2.29167 3.50829 2.29167 4.99996C2.29167 6.49163 3.50834 7.70829 5.00001 7.70829C6.49167 7.70829 7.70834 6.49163 7.70834 4.99996C7.70834 3.50829 6.49167 2.29163 5.00001 2.29163Z" fill="#5879FD"/>
<path d="M15 18.9583C12.8167 18.9583 11.0417 17.1833 11.0417 15C11.0417 12.8166 12.8167 11.0416 15 11.0416C17.1833 11.0416 18.9583 12.8166 18.9583 15C18.9583 17.1833 17.1833 18.9583 15 18.9583ZM15 12.2916C13.5083 12.2916 12.2917 13.5083 12.2917 15C12.2917 16.4916 13.5083 17.7083 15 17.7083C16.4917 17.7083 17.7083 16.4916 17.7083 15C17.7083 13.5083 16.4917 12.2916 15 12.2916Z" fill="#5879FD"/>
</svg>
