<svg width="22" height="21" viewBox="0 0 22 21" fill="none" xmlns="http://www.w3.org/2000/svg">
<g id="vuesax/outline/card-edit">
<g id="card-edit">
<path id="Vector" d="M10.3106 8.04071H1.79316C1.42556 8.04071 1.12073 7.75738 1.12073 7.41571C1.12073 7.07404 1.42556 6.79071 1.79316 6.79071H10.3106C10.6782 6.79071 10.9831 7.07404 10.9831 7.41571C10.9831 7.75738 10.6782 8.04071 10.3106 8.04071Z" fill="white"/>
<path id="Vector_2" d="M7.17262 14.7074H5.37946C5.01187 14.7074 4.70703 14.4241 4.70703 14.0824C4.70703 13.7407 5.01187 13.4574 5.37946 13.4574H7.17262C7.54022 13.4574 7.84505 13.7407 7.84505 14.0824C7.84505 14.4241 7.54022 14.7074 7.17262 14.7074Z" fill="white"/>
<path id="Vector_3" d="M13.0004 14.7074H9.41406C9.04646 14.7074 8.74162 14.4241 8.74162 14.0824C8.74162 13.7407 9.04646 13.4574 9.41406 13.4574H13.0004C13.368 13.4574 13.6728 13.7407 13.6728 14.0824C13.6728 14.4241 13.368 14.7074 13.0004 14.7074Z" fill="white"/>
<path id="Vector_4" d="M15.7439 18.0408H5.77396C2.20559 18.0408 1.12073 17.0408 1.12073 13.7574V6.90742C1.12073 3.62408 2.20559 2.62408 5.77396 2.62408H13.0004C13.368 2.62408 13.6728 2.90742 13.6728 3.24908C13.6728 3.59075 13.368 3.87408 13.0004 3.87408H5.77396C2.95871 3.87408 2.46559 4.32408 2.46559 6.90742V13.7491C2.46559 16.3324 2.95871 16.7824 5.77396 16.7824H15.7349C18.5502 16.7824 19.0433 16.3324 19.0433 13.7491V10.3491C19.0433 10.0074 19.3481 9.72409 19.7157 9.72409C20.0833 9.72409 20.3882 10.0074 20.3882 10.3491V13.7491C20.3971 17.0408 19.3123 18.0408 15.7439 18.0408Z" fill="white"/>
<path id="Vector_5" d="M13.9149 9.86571C13.5652 9.86571 13.2335 9.74905 13.0004 9.52405C12.7135 9.25738 12.5879 8.87405 12.6507 8.47405L12.83 7.29071C12.8748 6.99071 13.0721 6.63238 13.2962 6.42405L16.6225 3.33238C17.9405 2.10738 19.0881 2.80738 19.6619 3.33238C20.2268 3.85738 20.9799 4.92405 19.6619 6.15738L16.3356 9.24905C16.1025 9.46571 15.717 9.64071 15.4032 9.68238L14.1301 9.84905C14.0583 9.85738 13.9866 9.86571 13.9149 9.86571ZM18.1378 3.89905C17.9584 3.89905 17.7971 4.01571 17.5729 4.21571L14.2556 7.30738C14.2287 7.34071 14.1749 7.43238 14.1659 7.47405L13.9866 8.59905L15.2059 8.44071C15.2508 8.43238 15.3494 8.38238 15.3853 8.35738L18.7116 5.26571C19.133 4.87405 19.1957 4.65738 18.7116 4.21571C18.4785 3.99905 18.3081 3.89905 18.1378 3.89905Z" fill="white"/>
<path id="Vector_6" d="M18.7116 6.78238C18.6488 6.78238 18.586 6.77405 18.5322 6.75738C17.3039 6.43238 16.3267 5.53238 15.986 4.39072C15.8873 4.05738 16.0936 3.71572 16.4522 3.61572C16.8108 3.52405 17.1784 3.71572 17.286 4.04905C17.5102 4.77405 18.1288 5.34905 18.9088 5.55738C19.2674 5.64905 19.4737 5.99905 19.375 6.32405C19.2764 6.59905 19.0074 6.78238 18.7116 6.78238Z" fill="white"/>
</g>
</g>
</svg>
