<svg     width="20"
      height="15" viewBox="0 0 25 20" fill="none" xmlns="http://www.w3.org/2000/svg">
<path fill-rule="evenodd" clip-rule="evenodd" d="M16.6113 7.4519C17.8193 8.6788 17.8596 10.6426 16.7321 11.9186L16.6113 12.0481L13.3158 15.1995C13.0034 15.5168 12.4968 15.5168 12.1844 15.1995C11.896 14.9066 11.8738 14.4458 12.1179 14.127L12.1844 14.0505L15.48 10.899C16.0719 10.2978 16.1031 9.34277 15.5734 8.70431L15.48 8.60095L12.1844 5.44952C11.872 5.13222 11.872 4.61778 12.1844 4.30048C12.4728 4.00758 12.9266 3.98505 13.2404 4.23288L13.3158 4.30048L16.6113 7.4519Z" fill="#032282"/>
<g opacity="0.3">
<path fill-rule="evenodd" clip-rule="evenodd" d="M11.8113 7.4519C13.0193 8.6788 13.0596 10.6426 11.9321 11.9186L11.8113 12.0481L8.51572 15.1995C8.20331 15.5168 7.69677 15.5168 7.38435 15.1995C7.09597 14.9066 7.07378 14.4458 7.3178 14.127L7.38435 14.0505L10.6799 10.899C11.2719 10.2978 11.303 9.34277 10.7734 8.70431L10.6799 8.60095L7.38435 5.44952C7.07193 5.13222 7.07193 4.61778 7.38435 4.30048C7.67274 4.00758 8.12653 3.98505 8.44036 4.23288L8.51572 4.30048L11.8113 7.4519Z" fill="#032282"/>
</g>
</svg>
