<svg width="20" height="20" viewBox="0 0 20 20" fill="none" xmlns="http://www.w3.org/2000/svg">
<g id="vuesax/outline/medal-star">
<g id="medal-star">
<path id="Vector" d="M10 13.9584C9.66667 13.9584 9.33334 13.9333 9.01667 13.875C7.25001 13.6167 5.64167 12.6 4.62501 11.0917C3.91667 10.025 3.54167 8.78335 3.54167 7.50002C3.54167 3.94169 6.44167 1.04169 10 1.04169C13.5583 1.04169 16.4583 3.94169 16.4583 7.50002C16.4583 8.78335 16.0833 10.025 15.375 11.0917C14.35 12.6084 12.7417 13.6167 10.9583 13.8834C10.6667 13.9334 10.3333 13.9584 10 13.9584ZM10 2.29169C7.12501 2.29169 4.79167 4.62502 4.79167 7.50002C4.79167 8.54169 5.09167 9.54169 5.65834 10.3917C6.48334 11.6084 7.77501 12.425 9.20834 12.6334C9.74167 12.725 10.2667 12.725 10.7583 12.6334C12.2167 12.425 13.5083 11.6 14.3333 10.3833C14.9 9.53335 15.2 8.53335 15.2 7.49168C15.2083 4.62501 12.875 2.29169 10 2.29169Z" fill="white"/>
<path id="Vector_2" d="M5.39152 18.825C5.27485 18.825 5.16652 18.8083 5.04985 18.7833C4.50819 18.6583 4.09152 18.2416 3.96652 17.6999L3.67485 16.4749C3.65819 16.3999 3.59985 16.3416 3.51652 16.3166L2.14152 15.9916C1.62485 15.8666 1.21652 15.4833 1.07485 14.975C0.933186 14.4666 1.07485 13.9166 1.44985 13.5416L4.69985 10.2916C4.83319 10.1583 5.01652 10.0916 5.19985 10.1083C5.38319 10.125 5.54985 10.2249 5.65819 10.3833C6.48319 11.5999 7.77485 12.425 9.21652 12.6333C9.74985 12.725 10.2749 12.725 10.7665 12.6333C12.2249 12.425 13.5165 11.5999 14.3415 10.3833C14.4415 10.2249 14.6165 10.125 14.7999 10.1083C14.9832 10.0916 15.1665 10.1583 15.2999 10.2916L18.5499 13.5416C18.9249 13.9166 19.0665 14.4666 18.9249 14.975C18.7832 15.4833 18.3665 15.875 17.8582 15.9916L16.4832 16.3166C16.4082 16.3333 16.3499 16.3916 16.3249 16.4749L16.0332 17.6999C15.9082 18.2416 15.4915 18.6583 14.9499 18.7833C14.4082 18.9166 13.8499 18.7249 13.4999 18.2999L9.99985 14.275L6.49985 18.3083C6.21652 18.6416 5.81652 18.825 5.39152 18.825ZM5.07485 11.6916L2.33319 14.4333C2.25819 14.5083 2.26652 14.5916 2.28319 14.6416C2.29152 14.6833 2.33319 14.7666 2.43319 14.7833L3.80819 15.1083C4.34985 15.2333 4.76652 15.6499 4.89152 16.1916L5.18319 17.4166C5.20819 17.5249 5.29152 17.5583 5.34152 17.575C5.39152 17.5833 5.47485 17.5916 5.54985 17.5083L8.74152 13.8333C7.32485 13.5583 6.02485 12.8 5.07485 11.6916ZM11.2582 13.825L14.4499 17.4916C14.5249 17.5833 14.6165 17.5833 14.6665 17.5666C14.7165 17.5583 14.7915 17.5166 14.8249 17.4083L15.1165 16.1833C15.2415 15.6416 15.6582 15.2249 16.1999 15.0999L17.5749 14.775C17.6749 14.75 17.7165 14.675 17.7249 14.6333C17.7415 14.5916 17.7499 14.5 17.6749 14.425L14.9332 11.6833C13.9749 12.7916 12.6832 13.55 11.2582 13.825Z" fill="white"/>
<path id="Vector_3" d="M11.5751 10.7417C11.3584 10.7417 11.1001 10.6834 10.7918 10.5L10.0001 10.025L9.20845 10.4917C8.48345 10.925 8.00845 10.675 7.83345 10.55C7.65845 10.425 7.28345 10.05 7.47511 9.22503L7.67511 8.36669L7.00845 7.75001C6.64178 7.38334 6.50845 6.94169 6.63345 6.54169C6.75845 6.14169 7.12511 5.85835 7.64178 5.77501L8.53345 5.62502L8.95845 4.69169C9.20011 4.21669 9.57511 3.95001 10.0001 3.95001C10.4251 3.95001 10.8084 4.22503 11.0418 4.70003L11.5334 5.68336L12.3584 5.78336C12.8668 5.86669 13.2334 6.15001 13.3668 6.55001C13.4918 6.95001 13.3584 7.39169 12.9918 7.75835L12.3001 8.45003L12.5168 9.22503C12.7084 10.05 12.3334 10.425 12.1584 10.55C12.0668 10.625 11.8668 10.7417 11.5751 10.7417ZM8.00845 6.9917L8.58345 7.56668C8.85011 7.83334 8.98345 8.28336 8.90011 8.65002L8.74178 9.31668L9.40845 8.92501C9.76678 8.71668 10.2501 8.71668 10.6001 8.92501L11.2668 9.31668L11.1168 8.65002C11.0334 8.27502 11.1584 7.83334 11.4251 7.56668L12.0001 6.9917L11.2751 6.86668C10.9251 6.80835 10.5751 6.55003 10.4168 6.23336L10.0001 5.41669L9.58345 6.25002C9.43345 6.55835 9.08345 6.82503 8.73345 6.88336L8.00845 6.9917Z" fill="white"/>
</g>
</g>
</svg>
