<svg width="20" height="21" viewBox="0 0 20 21" fill="none" xmlns="http://www.w3.org/2000/svg">
<g id="vuesax/outline/radar">
<g id="radar">
<path id="Vector" d="M9.99999 12.624C8.73333 12.624 7.70833 11.599 7.70833 10.3324C7.70833 9.06571 8.73333 8.04071 9.99999 8.04071C11.2667 8.04071 12.2917 9.06571 12.2917 10.3324C12.2917 11.599 11.2667 12.624 9.99999 12.624ZM9.99999 9.29071C9.42499 9.29071 8.95833 9.75738 8.95833 10.3324C8.95833 10.9074 9.42499 11.374 9.99999 11.374C10.575 11.374 11.0417 10.9074 11.0417 10.3324C11.0417 9.75738 10.575 9.29071 9.99999 9.29071Z" fill="white"/>
<path id="Vector_2" d="M16.6669 15.9574C16.5336 15.9574 16.4086 15.9158 16.2919 15.8325C16.0169 15.6241 15.9586 15.2324 16.1669 14.9574C17.1752 13.6158 17.7086 12.0158 17.7086 10.3324C17.7086 8.64912 17.1752 7.04913 16.1669 5.70746C15.9586 5.43246 16.0169 5.04078 16.2919 4.83244C16.5669 4.62411 16.9586 4.68244 17.1669 4.95744C18.3419 6.51577 18.9586 8.37412 18.9586 10.3324C18.9586 12.2908 18.3419 14.1491 17.1669 15.7075C17.0419 15.8741 16.8586 15.9574 16.6669 15.9574Z" fill="white"/>
<path id="Vector_3" d="M3.33334 15.9574C3.14167 15.9574 2.95833 15.8741 2.83333 15.7075C1.65833 14.1491 1.04167 12.2908 1.04167 10.3324C1.04167 8.37412 1.65833 6.51577 2.83333 4.95744C3.04167 4.68244 3.43335 4.62411 3.70835 4.83244C3.98335 5.04078 4.04168 5.43246 3.83334 5.70746C2.82501 7.04913 2.29167 8.64912 2.29167 10.3324C2.29167 12.0158 2.82501 13.6158 3.83334 14.9574C4.04168 15.2324 3.98335 15.6241 3.70835 15.8325C3.60002 15.9158 3.46667 15.9574 3.33334 15.9574Z" fill="white"/>
<path id="Vector_4" d="M14 13.9574C13.8667 13.9574 13.7417 13.9157 13.6251 13.8324C13.3501 13.6241 13.2917 13.2324 13.5001 12.9574C14.0751 12.199 14.3751 11.2907 14.3751 10.3324C14.3751 9.37405 14.0751 8.46572 13.5001 7.70739C13.2917 7.43239 13.3501 7.04071 13.6251 6.83237C13.9001 6.62404 14.2917 6.68239 14.5 6.95739C15.2334 7.94073 15.6251 9.10738 15.6251 10.3324C15.6251 11.5574 15.2334 12.7324 14.5 13.7074C14.375 13.874 14.1917 13.9574 14 13.9574Z" fill="white"/>
<path id="Vector_5" d="M6.00001 13.9574C5.80834 13.9574 5.62501 13.874 5.50001 13.7074C4.76667 12.724 4.375 11.5574 4.375 10.3324C4.375 9.10738 4.76667 7.93239 5.50001 6.95739C5.70834 6.68239 6.09999 6.62404 6.37499 6.83237C6.64999 7.04071 6.70832 7.43239 6.49999 7.70739C5.92499 8.46572 5.625 9.37405 5.625 10.3324C5.625 11.2907 5.92499 12.199 6.49999 12.9574C6.70832 13.2324 6.64999 13.6241 6.37499 13.8324C6.26666 13.9157 6.13334 13.9574 6.00001 13.9574Z" fill="white"/>
</g>
</g>
</svg>
