<svg width="20" height="20" viewBox="0 0 20 20" fill="none" xmlns="http://www.w3.org/2000/svg">
<g id="vuesax/outline/security-user">
<g id="security-user">
<path id="Vector" d="M9.99992 18.9667C9.09159 18.9667 8.1916 18.7 7.48327 18.175L3.89992 15.5C2.94992 14.7917 2.20825 13.3167 2.20825 12.1334V5.9417C2.20825 4.65837 3.14993 3.2917 4.35827 2.8417L8.51659 1.28337C9.34159 0.975041 10.6416 0.975041 11.4666 1.28337L15.6333 2.8417C16.8416 3.2917 17.7833 4.65837 17.7833 5.9417V12.1334C17.7833 13.3167 17.0416 14.7917 16.0916 15.5L12.5083 18.175C11.8083 18.7 10.9083 18.9667 9.99992 18.9667ZM8.95826 2.45004L4.79993 4.00836C4.08327 4.27503 3.45825 5.17504 3.45825 5.9417V12.1334C3.45825 12.925 4.0166 14.0334 4.6416 14.5L8.22492 17.175C9.18325 17.8917 10.8083 17.8917 11.7666 17.175L15.3499 14.5C15.9833 14.025 16.5333 12.9167 16.5333 12.1334V5.9417C16.5333 5.18337 15.9083 4.28337 15.1916 4.00836L11.0332 2.45004C10.4832 2.2417 9.51659 2.2417 8.95826 2.45004Z" fill="white"/>
<path id="Vector_2" d="M9.99992 9.72506C9.98325 9.72506 9.96658 9.72506 9.94158 9.72506C8.73325 9.69172 7.84993 8.76672 7.84993 7.64172C7.84993 6.49172 8.79158 5.55005 9.94158 5.55005C11.0916 5.55005 12.0333 6.49172 12.0333 7.64172C12.0249 8.77506 11.1416 9.69171 10.0166 9.73337C10.0082 9.72504 10.0083 9.72506 9.99992 9.72506ZM9.94158 6.80005C9.47491 6.80005 9.09993 7.17506 9.09993 7.64172C9.09993 8.10006 9.45826 8.46671 9.90826 8.48337C9.90826 8.48337 9.94992 8.48337 9.99992 8.48337C10.4416 8.45837 10.7833 8.09172 10.7833 7.64172C10.7916 7.17506 10.4082 6.80005 9.94158 6.80005Z" fill="white"/>
<path id="Vector_3" d="M9.99984 14.4583C9.28318 14.4583 8.55818 14.2667 7.99985 13.8917C7.44151 13.525 7.12483 12.9834 7.12483 12.4084C7.12483 11.8334 7.44151 11.2917 7.99985 10.9167C9.12485 10.1667 10.8832 10.175 11.9998 10.9167C12.5582 11.2833 12.8749 11.825 12.8749 12.4C12.8749 12.975 12.5582 13.5167 11.9998 13.8917C11.4415 14.2667 10.7165 14.4583 9.99984 14.4583ZM8.6915 11.95C8.48317 12.0833 8.3665 12.25 8.37483 12.4C8.37483 12.55 8.4915 12.7167 8.6915 12.85C9.3915 13.3167 10.6082 13.3167 11.3082 12.85C11.5165 12.7167 11.6332 12.55 11.6332 12.4C11.6332 12.25 11.5165 12.0833 11.3165 11.95C10.6165 11.4917 9.3915 11.4917 8.6915 11.95Z" fill="white"/>
</g>
</g>
</svg>
