<svg width="20" height="21" viewBox="0 0 20 21" fill="none" xmlns="http://www.w3.org/2000/svg">
<g id="vuesax/linear/shop">
<g id="shop">
<path id="Vector" d="M2.50833 9.68237V13.424C2.50833 17.1657 4.00833 18.6657 7.75 18.6657H12.2417C15.9833 18.6657 17.4833 17.1657 17.4833 13.424V9.68237" stroke="white" stroke-width="1.5" stroke-linecap="round" stroke-linejoin="round"/>
<path id="Vector_2" d="M10 10.3324C11.525 10.3324 12.65 9.09075 12.5 7.56575L11.95 1.99908H8.05834L7.50001 7.56575C7.35001 9.09075 8.47501 10.3324 10 10.3324Z" stroke="white" stroke-width="1.5" stroke-linecap="round" stroke-linejoin="round"/>
<path id="Vector_3" d="M15.2583 10.3324C16.9417 10.3324 18.175 8.96575 18.0083 7.29075L17.775 4.99908C17.475 2.83242 16.6417 1.99908 14.4583 1.99908H11.9167L12.5 7.84075C12.6417 9.21575 13.8833 10.3324 15.2583 10.3324Z" stroke="white" stroke-width="1.5" stroke-linecap="round" stroke-linejoin="round"/>
<path id="Vector_4" d="M4.69999 10.3324C6.07499 10.3324 7.31666 9.21575 7.44999 7.84075L7.63333 5.99908L8.03333 1.99908H5.49166C3.30833 1.99908 2.47499 2.83242 2.17499 4.99908L1.94999 7.29075C1.78333 8.96575 3.01666 10.3324 4.69999 10.3324Z" stroke="white" stroke-width="1.5" stroke-linecap="round" stroke-linejoin="round"/>
<path id="Vector_5" d="M10 14.4991C8.60834 14.4991 7.91667 15.1908 7.91667 16.5824V18.6658H12.0833V16.5824C12.0833 15.1908 11.3917 14.4991 10 14.4991Z" stroke="white" stroke-width="1.5" stroke-linecap="round" stroke-linejoin="round"/>
</g>
</g>
</svg>
