<svg width="20" height="20" viewBox="0 0 20 20" fill="none" xmlns="http://www.w3.org/2000/svg">
<path d="M7.50001 18.3337H12.5C16.6667 18.3337 18.3333 16.667 18.3333 12.5003V7.50033C18.3333 3.33366 16.6667 1.66699 12.5 1.66699H7.50001C3.33334 1.66699 1.66667 3.33366 1.66667 7.50033V12.5003C1.66667 16.667 3.33334 18.3337 7.50001 18.3337Z" stroke="white" stroke-width="1.5" stroke-linecap="round" stroke-linejoin="round"/>
<path d="M11.9593 9.09214C11.8759 9.6838 11.5259 10.1838 11.0426 10.4838V12.1338C11.0426 12.7088 10.5759 13.1755 10.0009 13.1755C9.42592 13.1755 8.95925 12.7088 8.95925 12.1338V10.4838C8.47592 10.1838 8.12591 9.6838 8.04258 9.09214C8.02591 9.00047 8.01758 8.90046 8.01758 8.80046C8.01758 7.5338 9.21759 6.55047 10.5343 6.90047C11.2009 7.07547 11.7426 7.61714 11.9176 8.2838C11.9926 8.5588 12.0009 8.8338 11.9593 9.09214Z" stroke="white" stroke-width="1.5" stroke-miterlimit="10"/>
<path d="M18.3346 9.09216H11.9596" stroke="white" stroke-width="1.5" stroke-miterlimit="10"/>
<path d="M8.04167 9.09204H1.66667" stroke="white" stroke-width="1.5" stroke-miterlimit="10"/>
</svg>
